<?xml version="1.0" encoding="UTF-8"?>
<svg id="Layer_1" xmlns="http://www.w3.org/2000/svg" viewBox="0 0 150.82 158">
  <defs>
    <style>
      .cls-1 {
        fill: #231f20;
      }

      .cls-2, .cls-3 {
        fill: #fff;
      }

      .cls-3 {
        fill-rule: evenodd;
      }
    </style>
  </defs>
  <path class="cls-3" d="M123.37,46.57c-33.63-17.34-65.88-17.23-96.77.31v39.91c1.44-10.11,6.04-19.87,13.82-27.65,9.2-9.2,21.56-14.31,34.56-14.31s25.37,5.12,34.56,14.31c7.78,7.78,12.39,17.54,13.82,27.65v-40.23Z"/>
  <path class="cls-3" d="M54.72,114.4c-11.43-11.43-11.43-29.95,0-41.38,5.72-5.71,13.2-8.57,20.69-8.57s14.98,2.86,20.69,8.57c11.43,11.43,11.43,29.95,0,41.38l-17.39,17.39,11.54,11.46,17.35-17.35c17.78-17.78,17.78-46.61,0-64.39-8.89-8.89-20.54-13.33-32.19-13.33s-23.3,4.44-32.19,13.33c-17.78,17.78-17.78,46.61,0,64.39l32.1,32.1.09-.1.1.1,11.49-11.49-11.64-11.56-.04.04-20.59-20.59Z"/>
  <path class="cls-3" d="M92.83,112.31c9.63-10.03,9.63-26.28,0-36.31-4.65-4.84-10.85-7.52-17.42-7.52s-12.77,2.68-17.42,7.52c-9.63,10.03-9.63,26.28,0,36.31l17.28,18.01.02-.02.14.14,17.4-18.13Z"/>
  <path class="cls-2" d="M139.78,60.46v-29.22c-3.81-.03.51.06-5.7-.01v29.23c-2.3,1.91-4.08,6.01-4.72,11.12-.21,1.68,1.12,3.18,2.81,3.18h9.52c1.69,0,3.02-1.5,2.81-3.18-.64-5.11-2.42-9.21-4.72-11.12Z"/>
  <path class="cls-3" d="M133.78,22.93l-5.72-2.52L88.67,3.07c-8.91-4.12-15.92-4.09-26.73.09L0,30.44l9.93,5.42,1.96,1.07,12.97,7.08.09-.05c32.96-18.72,66.53-17.61,99.96-.38l.95.49,24.97-13.64-17.04-7.5Z"/>
  <g>
    <path class="cls-1" d="M84.3,97.4h-17.77v-8.89c0-4.9,3.99-8.89,8.88-8.89s8.89,3.99,8.89,8.89v8.89ZM70.28,93.64h10.27v-5.13c0-2.83-2.3-5.13-5.13-5.13s-5.13,2.3-5.13,5.13v5.13Z"/>
    <path class="cls-1" d="M86.48,92.89h-22.15c-.98,0-1.78.8-1.78,1.78v13.2c0,.98.8,1.78,1.78,1.78h22.15c.98,0,1.78-.8,1.78-1.78v-13.2c0-.98-.8-1.78-1.78-1.78ZM76.83,104.62h-2.84l.5-4.19c-.3-.26-.5-.64-.5-1.08,0-.78.64-1.42,1.42-1.42s1.42.64,1.42,1.42c0,.43-.2.81-.5,1.08l.5,4.19Z"/>
  </g>
</svg>