<?xml version="1.0" encoding="UTF-8"?><svg id="Layer_1" xmlns="http://www.w3.org/2000/svg" viewBox="0 0 409.91 84.97"><defs><style>.cls-1,.cls-2,.cls-3{fill:#e42327;}.cls-1,.cls-3{font-family:Roboto-Bold, Roboto;font-weight:700;}.cls-4{fill:#0ca8bc;}.cls-4,.cls-2,.cls-5,.cls-6{stroke-width:0px;}.cls-4,.cls-5,.cls-6{fill-rule:evenodd;}.cls-5{fill:#121c46;}.cls-6{fill:#1072b3;}.cls-7{fill:#121c46;font-family:Roboto-Medium, Roboto;font-weight:500;}.cls-3{letter-spacing:-.06em;}.cls-8{font-size:51.14px;}</style></defs><g id="topLogo"><text class="cls-8" transform="translate(83.95 66.09)"><tspan class="cls-7" x="0" y="0">CyberSecur</tspan><tspan class="cls-3" x="263.99" y="0">T</tspan><tspan class="cls-1" x="292.63" y="0">A</tspan></text><path class="cls-4" d="M66.12,25.04c-18.02-9.32-35.31-9.27-51.87.17v21.46c.77-5.44,3.24-10.68,7.41-14.87,4.93-4.94,11.55-7.7,18.52-7.7s13.6,2.75,18.52,7.7c4.17,4.18,6.64,9.43,7.41,14.87v-21.63Z"/><path class="cls-6" d="M29.33,61.52c-6.12-6.15-6.12-16.11,0-22.25,3.06-3.07,7.08-4.61,11.09-4.61s8.03,1.54,11.09,4.61c6.12,6.15,6.12,16.11,0,22.25l-9.32,9.35,6.19,6.16,9.3-9.33c9.53-9.56,9.53-25.07,0-34.62-4.76-4.78-11.01-7.17-17.25-7.17s-12.49,2.39-17.25,7.17c-9.53,9.56-9.53,25.07,0,34.62l17.2,17.26.05-.05.05.05,6.16-6.18-6.24-6.22-.02.02-11.04-11.07Z"/><path class="cls-5" d="M49.75,60.39c5.16-5.4,5.16-14.13,0-19.53-2.49-2.6-5.81-4.04-9.34-4.04s-6.84,1.44-9.34,4.04c-5.16,5.4-5.16,14.13,0,19.53l9.26,9.68h.01s.07.06.07.06l9.32-9.75Z"/><path class="cls-2" d="M74.92,32.51v-15.71c-2.04-.01.27.03-3.06,0v15.72c-1.23,1.02-2.19,3.23-2.53,5.98-.11.9.6,1.71,1.51,1.71h5.1c.91,0,1.62-.8,1.51-1.71-.34-2.75-1.3-4.95-2.53-5.98Z"/><path class="cls-5" d="M71.7,12.33l-3.07-1.35L47.52,1.65c-4.78-2.22-8.53-2.2-14.33.05L0,16.37l5.32,2.92,1.05.58,6.95,3.81.05-.03c17.66-10.07,35.66-9.47,53.58-.2l.51.26,13.38-7.34-9.14-4.04Z"/><path class="cls-2" d="M45.18,52.38h-9.52v-4.78c0-2.63,2.14-4.78,4.76-4.78s4.76,2.14,4.76,4.78v4.78ZM37.67,50.36h5.5v-2.76c0-1.52-1.23-2.76-2.75-2.76s-2.75,1.24-2.75,2.76v2.76Z"/><path class="cls-2" d="M46.35,49.95h-11.87c-.53,0-.95.43-.95.96v7.1c0,.53.43.96.95.96h11.87c.53,0,.95-.43.95-.96v-7.1c0-.53-.43-.96-.95-.96ZM41.18,56.26h-1.52l.27-2.25c-.16-.14-.27-.35-.27-.58,0-.42.34-.76.76-.76s.76.34.76.76c0,.23-.11.44-.27.58l.27,2.25Z"/></g></svg>