<?xml version="1.0" encoding="UTF-8"?>
<svg id="Layer_1" data-name="Layer 1" xmlns="http://www.w3.org/2000/svg" version="1.1" viewBox="0 0 335.37 72.27">
  <defs>
    <style>
      .cls-1 {
        font-size: 41.26px;
      }

      .cls-2 {
        fill: #0ca8bc;
      }

      .cls-2, .cls-3, .cls-4, .cls-5 {
        stroke-width: 0px;
      }

      .cls-2, .cls-4, .cls-5 {
        fill-rule: evenodd;
      }

      .cls-6 {
        font-family: Roboto-Bold, Roboto;
        font-weight: 700;
        letter-spacing: 0em;
      }

      .cls-6, .cls-3 {
        fill: #e42327;
      }

      .cls-4, .cls-7 {
        fill: #141d46;
      }

      .cls-5 {
        fill: #1072b3;
      }

      .cls-7 {
        font-family: Roboto-Medium, Roboto;
        font-weight: 500;
      }
    </style>
  </defs>
  <g id="topLogo">
    <text class="cls-1" transform="translate(71.38 55.24)"><tspan class="cls-7" x="0" y="0">CyberSecur</tspan><tspan class="cls-6" x="212.96" y="0">TA</tspan></text>
    <g>
      <path class="cls-2" d="M57,22.13c-14.54-7.52-28.49-7.48-41.84.14v17.32c.62-4.39,2.61-8.62,5.98-12,3.98-3.99,9.32-6.21,14.94-6.21s10.97,2.22,14.94,6.21c3.36,3.38,5.36,7.61,5.98,12v-17.45Z"/>
      <path class="cls-5" d="M27.31,51.55c-4.94-4.96-4.94-12.99,0-17.95,2.47-2.48,5.71-3.72,8.95-3.72s6.47,1.24,8.95,3.72c4.94,4.96,4.94,12.99,0,17.95l-7.52,7.54,4.99,4.97,7.5-7.53c7.69-7.71,7.69-20.22,0-27.93-3.84-3.86-8.88-5.78-13.92-5.78s-10.08,1.93-13.92,5.78c-7.69,7.71-7.69,20.22,0,27.93l13.88,13.92.04-.04.04.04,4.97-4.99-5.03-5.01-.02.02-8.9-8.93Z"/>
      <path class="cls-4" d="M43.79,50.65c4.16-4.35,4.16-11.4,0-15.75-2.01-2.1-4.69-3.26-7.53-3.26s-5.52,1.16-7.53,3.26c-4.16,4.35-4.16,11.4,0,15.75l7.47,7.81h0s.06.05.06.05l7.52-7.87Z"/>
      <path class="cls-3" d="M64.09,28.16v-12.68c-1.65-.01.22.02-2.47,0v12.68c-1,.83-1.76,2.61-2.04,4.82-.09.73.48,1.38,1.21,1.38h4.12c.73,0,1.31-.65,1.21-1.38-.28-2.22-1.05-4-2.04-4.82Z"/>
      <path class="cls-4" d="M61.49,11.88l-2.47-1.09-17.03-7.52c-3.85-1.79-6.88-1.77-11.56.04L3.65,15.13l4.29,2.35.85.47,5.61,3.07.04-.02c14.25-8.12,28.76-7.64,43.22-.16l.41.21,10.8-5.92-7.37-3.26Z"/>
      <g>
        <path class="cls-3" d="M40.1,44.18h-7.68v-3.85c0-2.13,1.72-3.85,3.84-3.85s3.84,1.73,3.84,3.85v3.85ZM34.04,42.55h4.44v-2.23c0-1.23-1-2.23-2.22-2.23s-2.22,1-2.22,2.23v2.23Z"/>
        <path class="cls-3" d="M41.05,42.23h-9.57c-.43,0-.77.35-.77.77v5.73c0,.43.34.77.77.77h9.57c.43,0,.77-.35.77-.77v-5.73c0-.43-.34-.77-.77-.77ZM36.87,47.31h-1.23l.22-1.82c-.13-.11-.22-.28-.22-.47,0-.34.28-.62.61-.62s.61.28.61.62c0,.19-.09.35-.22.47l.22,1.82Z"/>
      </g>
    </g>
  </g>
</svg>